<?xml version="1.0" standalone="no"?>
<!DOCTYPE svg PUBLIC "-//W3C//DTD SVG 20010904//EN"
 "http://www.w3.org/TR/2001/REC-SVG-20010904/DTD/svg10.dtd">
<svg version="1.0" xmlns="http://www.w3.org/2000/svg"
 width="260.000000pt" height="260.000000pt" viewBox="0 0 260.000000 260.000000"
 preserveAspectRatio="xMidYMid meet">
<metadata>
Created by potrace 1.11, written by Peter Selinger 2001-2013
</metadata>
<g transform="translate(0.000000,260.000000) scale(0.100000,-0.100000)"
fill="#000000" stroke="none">
<path d="M383 1615 c-90 -24 -143 -58 -143 -91 0 -11 42 -2 72 15 30 18 160
41 230 41 27 0 28 -2 28 -50 0 -40 5 -56 24 -75 67 -67 176 -27 176 66 0 40 1
41 28 34 15 -3 34 -13 43 -21 21 -19 59 -18 59 1 0 21 -52 51 -129 75 -78 25
-304 27 -388 5z m338 -61 c17 -20 2 -63 -26 -76 -56 -25 -113 45 -67 82 23 19
75 16 93 -6z"/>
<path d="M1550 1496 l0 -136 34 0 c43 0 90 -38 106 -85 33 -100 -48 -181 -157
-157 -39 9 -41 8 -46 -15 -6 -31 22 -43 100 -43 65 0 133 28 156 64 38 58 33
166 -11 217 -14 18 -45 41 -69 51 l-42 19 -3 106 -3 107 -32 3 -33 4 0 -135z"/>
<path d="M1965 1623 c-76 -17 -147 -48 -166 -71 -18 -24 -19 -27 -5 -30 9 -2
35 6 59 17 38 18 171 41 240 41 26 0 28 -2 22 -34 -17 -87 84 -158 155 -109
39 27 49 45 50 86 0 20 3 37 7 37 4 0 25 -8 47 -19 23 -10 48 -21 58 -24 32
-11 58 -109 58 -220 0 -120 -8 -153 -55 -231 -33 -55 -45 -96 -27 -96 4 0 27
19 49 43 49 50 90 133 105 216 22 115 -20 256 -102 345 -46 50 -60 56 -60 28
0 -17 -4 -17 -67 4 -59 20 -87 23 -208 23 -77 -1 -149 -3 -160 -6z m293 -59
c17 -5 15 -60 -4 -78 -32 -33 -94 -7 -94 40 0 46 32 59 98 38z"/>
<path d="M153 1578 c-23 -24 -57 -74 -74 -113 -61 -130 -49 -279 33 -408 27
-41 75 -87 92 -87 16 0 2 43 -29 90 -48 71 -59 118 -58 240 1 116 13 162 63
234 28 42 40 86 22 86 -4 0 -27 -19 -49 -42z"/>
<path d="M640 1065 c0 -23 31 -58 74 -81 44 -25 62 -29 131 -28 67 0 88 4 132
27 83 43 98 87 28 87 -33 0 -47 -5 -55 -19 -5 -11 -30 -27 -55 -37 -55 -20
-107 -9 -145 31 -18 19 -33 25 -67 25 -24 0 -43 -2 -43 -5z"/>
</g>
</svg>
